<svg xmlns="http://www.w3.org/2000/svg" width="66.32" height="72" viewBox="0 0 66.32 72"><defs><style>.cls-1{fill:none;stroke:#194a8a;stroke-linecap:round;stroke-linejoin:round;stroke-width:2px;}</style></defs><title>Asset 16</title><g id="Layer_2" data-name="Layer 2"><g id="hen"><line class="cls-1" x1="40" y1="71" x2="29" y2="71"/><path class="cls-1" d="M31.5,71V62.5s7,0,10-3a26.64,26.64,0,0,1,10-6c3-1,8-6,9-11s-1-13-3-16-1-5,0-7,4-3,7-3-3-6-5-7-8-2-11,2-3,9-5,12-3,8-12,7a80.2,80.2,0,0,1-15-3l-10-9"/><line class="cls-1" x1="10" y1="31" x2="1" y2="21"/><path class="cls-1" d="M31.5,62.5S19,63,14,53c-3-6-6-6-6-8s2-5-1-7a11.93,11.93,0,0,1-5-9"/><path class="cls-1" d="M25,44s9,1,12,0,11-3,10-12"/><circle class="cls-1" cx="57" cy="14" r="1"/><path class="cls-1" d="M61.07,10.61S63,6,60,4s-3-3-4-3-2,0-3,2-2,1-3,2-2,2-1,3a2.85,2.85,0,0,1,.9,2.11"/></g></g></svg>