<svg xmlns="http://www.w3.org/2000/svg" xmlns:xlink="http://www.w3.org/1999/xlink" width="134" height="35" viewBox="0 0 134 35"><defs><style>.cls-1{fill:url(#linear-gradient);}.cls-2{font-size:23.13px;font-family:Rift-Demi, Rift;font-weight:300;}.cls-2,.cls-3{fill:#f2f2f2;}</style><linearGradient id="linear-gradient" x1="0.24" y1="17.5" x2="134.24" y2="17.5" gradientUnits="userSpaceOnUse"><stop offset="0" stop-color="#009245"/><stop offset="0.07" stop-color="#169a44"/><stop offset="0.19" stop-color="#3aa743"/><stop offset="0.32" stop-color="#58b341"/><stop offset="0.47" stop-color="#6fbb40"/><stop offset="0.62" stop-color="#7fc140"/><stop offset="0.78" stop-color="#89c53f"/><stop offset="1" stop-color="#8cc63f"/></linearGradient></defs><title>Asset 2</title><g id="Layer_2" data-name="Layer 2"><g id="Layer_1-2" data-name="Layer 1"><rect class="cls-1" width="134" height="35" rx="12"/><text/><text class="cls-2" transform="translate(6.07 25.2)">Learn More!</text><path class="cls-3" d="M111,29a10.71,10.71,0,0,1,2-8l-1-1c-1.35,3.08-2.3,6.12-2,9A1.07,1.07,0,0,0,111,29Z"/><path class="cls-3" d="M127,7c-17.76.85-16.21,11-15.31,14.1a9.48,9.48,0,0,0,.31.9C128,27,127,7,127,7Zm-2,2c-4.89,3.27-8.43,7.25-12.61,12C115.62,15.14,120,10.64,126,8Z"/></g></g></svg>