<svg xmlns="http://www.w3.org/2000/svg" width="283.5" height="283.5" viewBox="0 0 283.5 283.5"><defs><style>.cls-1,.cls-2{fill:none;stroke:#333;stroke-miterlimit:10;}.cls-1{stroke-width:3px;}.cls-2{stroke-width:1.5px;}.cls-10,.cls-13,.cls-3,.cls-4,.cls-5,.cls-7,.cls-8,.cls-9{fill:#333;}.cls-4{font-size:14.77px;}.cls-10,.cls-11,.cls-12,.cls-13,.cls-4,.cls-5,.cls-7,.cls-8,.cls-9{font-family:ProximaNova-Bold, Proxima Nova;font-weight:700;}.cls-5{font-size:14.56px;}.cls-6{letter-spacing:-0.1em;}.cls-7{font-size:14.71px;}.cls-8{font-size:14.53px;}.cls-9{font-size:14.95px;}.cls-10{font-size:14.71px;}.cls-11{font-size:49.15px;fill:#194a8a;}.cls-12{font-size:24.87px;fill:#da364f;}.cls-13{font-size:11.26px;}</style></defs><title>Asset 2</title><g id="Layer_2" data-name="Layer 2"><g id="Primary_Logo" data-name="Primary Logo"><g id="text"><circle class="cls-1" cx="141.77" cy="141.58" r="136.89"/><circle class="cls-2" cx="141.75" cy="141.75" r="141"/><path class="cls-3" d="M67.13,163.45a5.69,5.69,0,0,0-2.3-1H18.33c-.31,0,1,.89,1.13.94a5.69,5.69,0,0,0,2.3,1H68.25C68.57,164.39,67.22,163.51,67.13,163.45Z"/><path class="cls-3" d="M77.82,189.91a5.73,5.73,0,0,0-2.31-1H25c-.31,0,1,.88,1.13.93a5.69,5.69,0,0,0,2.3,1h50.5C79.26,190.84,77.91,190,77.82,189.91Z"/><path class="cls-3" d="M264.37,162.69H219.75a5.68,5.68,0,0,0-2.3,1c-.19.11-1.35.94-1.12.94H261a5.68,5.68,0,0,0,2.3-1C263.44,163.52,264.6,162.69,264.37,162.69Z"/><path class="cls-3" d="M256.36,188.88h-49.7a5.68,5.68,0,0,0-2.3,1c-.19.11-1.35.93-1.13.93h49.7a5.66,5.66,0,0,0,2.31-1C255.43,189.7,256.58,188.88,256.36,188.88Z"/><text class="cls-4" transform="translate(40.19 181.47) scale(0.94 1)">S</text><text class="cls-5" transform="translate(51.52 181.47) scale(1.18 1)"><tspan class="cls-6">T</tspan><tspan x="7.06" y="0">.</tspan></text><text class="cls-7" transform="translate(217.16 181.61) scale(1.13 1)">1</text><text class="cls-8" transform="translate(224.84 181.68) scale(1.04 1)">9</text><text class="cls-9" transform="translate(235.95 181.52)">3</text><text class="cls-10" transform="translate(246.03 181.61) scale(1.05 1)">4</text><text class="cls-11" transform="translate(52.46 144.99) rotate(-79.97) scale(0.94 1)">G</text><text class="cls-11" transform="translate(59.04 110.88) rotate(-60.58) scale(0.94 1)">R</text><text class="cls-11" transform="matrix(0.71, -0.61, 0.65, 0.76, 74.43, 83.71)">A</text><text class="cls-11" transform="translate(97.12 63.93) rotate(-21.6) scale(0.94 1)">Y</text><text class="cls-11" transform="translate(127.01 53.7) rotate(-5.87) scale(0.94 1)"> </text><text class="cls-11" transform="translate(140.8 51.34) rotate(9.74) scale(0.94 1)">R</text><text class="cls-11" transform="translate(171.51 58.09) rotate(25.6) scale(0.94 1)">I</text><text class="cls-11" transform="translate(185.31 63.46) rotate(41.85) scale(0.94 1)">D</text><text class="cls-11" transform="matrix(0.43, 0.83, -0.89, 0.45, 210.81, 86.73)">G</text><text class="cls-11" transform="translate(225.88 118.09) rotate(81.56) scale(0.94 1)">E</text><text class="cls-12" transform="matrix(0.75, 0.75, -0.71, 0.71, 63.69, 214.52)">B</text><text class="cls-12" transform="matrix(0.92, 0.53, -0.5, 0.86, 84.1, 233.12)">R</text><text class="cls-12" transform="matrix(1.02, 0.28, -0.27, 0.96, 108.1, 245.51)">E</text><text class="cls-12" transform="translate(133.36 251.57) rotate(-1.37) scale(1.06 1)">W</text><text class="cls-12" transform="translate(167.36 248.44) rotate(-15.8) scale(1.06 1)">I</text><text class="cls-12" transform="translate(183.6 243.4) rotate(-28.65) scale(1.06 1)">N</text><text class="cls-12" transform="matrix(0.75, -0.75, 0.7, 0.71, 208.8, 227.94)">G</text><text class="cls-13" transform="translate(73.82 243.91) rotate(33.8) scale(0.96 1)">R</text><text class="cls-13" transform="translate(81.75 249.03) rotate(29.82) scale(0.96 1)">I</text><text class="cls-13" transform="translate(86.5 251.75) rotate(25.78) scale(0.96 1)">D</text><text class="cls-13" transform="matrix(0.9, 0.34, -0.35, 0.94, 95.85, 256.14)">G</text><text class="cls-13" transform="translate(105.56 259.66) rotate(16.11) scale(0.96 1)">E</text><text class="cls-13" transform="translate(114.03 262.01) rotate(12.05) scale(0.96 1)">T</text><text class="cls-13" transform="matrix(0.95, 0.13, -0.13, 0.99, 122.43, 263.75)">O</text><text class="cls-13" transform="translate(132.98 265.12) rotate(2.7) scale(0.96 1)">W</text><text class="cls-13" transform="translate(145.48 265.55) rotate(-2.23) scale(0.96 1)">N</text><text class="cls-13" transform="matrix(0.96, -0.09, 0.1, 1, 155.79, 265)"> </text><text class="cls-13" transform="translate(160.98 264.51) rotate(-9.09) scale(0.96 1)">O</text><text class="cls-13" transform="matrix(0.93, -0.23, 0.24, 0.97, 171.65, 262.68)">N</text><text class="cls-13" transform="translate(181.75 260.06) rotate(-18.33) scale(0.96 1)">T</text><text class="cls-13" transform="translate(189.42 257.47) rotate(-22.45) scale(0.96 1)">A</text><text class="cls-13" transform="matrix(0.85, -0.44, 0.46, 0.89, 198.56, 253.57)">R</text><text class="cls-13" transform="translate(206.88 249.13) rotate(-31.03) scale(0.96 1)">I</text><text class="cls-13" transform="matrix(0.78, -0.56, 0.58, 0.82, 211.59, 246.3)">O</text><path class="cls-3" d="M136.86,199.05c-3.82-6.37-8.55-8.31-15.06-10.84-5.52-2.15-11.31-3.37-17-4.78,5.06,6.06,8.63,13.31,14.1,19a37,37,0,0,0,9,6.8,26.65,26.65,0,0,0,12.24,3.33s1.42,0,1.42,0C141.7,207.86,139.09,202.77,136.86,199.05Z"/><path class="cls-3" d="M138.08,213.25h-.42l-.36,0h-.08a23,23,0,0,1-6.81-1.27,37.7,37.7,0,0,1-16.57-11.56l-.62-.79c-.26-.21-.47-.48-.72-.7a2.23,2.23,0,0,0-.72-.54A49.37,49.37,0,0,1,106.9,195a21.42,21.42,0,0,0-6.34-2.34,27.64,27.64,0,0,1-10.67-6,48,48,0,0,1-3.48-3.36c7,15.58,21.18,26.48,42.07,30.89a57.81,57.81,0,0,0,8.47,1.13h0c.21,0,2.74.1,3.26.1a2.57,2.57,0,0,0,1.79-1h0s.31.08.31.07.38,0,.43-.2l-.22-.19a.91.91,0,0,1,.54,0s-.62-.15-.61-.18l-4.34-.7Z"/><path class="cls-3" d="M94.45,186.82a28,28,0,0,0,11.1,5.83,19.41,19.41,0,0,1,5.34,2.07,113.62,113.62,0,0,0-8.9-12.2l-.21-.13c-.8-.22-1.39-.44-2.18-.68-.63-.19.38-.42.56-.44a5.1,5.1,0,0,1,2.13.12c2.32.7,4.66,1.29,7,1.86v-.06h0a43.85,43.85,0,0,0-3.87-13.45,28.2,28.2,0,0,0-7.8-9.72c-3.28-2.59-7-4.47-10.26-7.16A25.89,25.89,0,0,1,82.93,148a73.21,73.21,0,0,0,2,28A51.67,51.67,0,0,0,94.45,186.82Z"/><path class="cls-3" d="M188.25,190.62a12.42,12.42,0,0,1-4.33,1.55c-3.23.59-6.63.33-9.55,2.13a1.52,1.52,0,0,1-.39.16l-.48.8c-3.56,5.82-8,10.66-14.15,13.62-5.32,2.58-12,5.8-21.22,4.37-.09.44,1.21,1.73,1.11,2.17a48,48,0,0,0,4.84.07,59.1,59.1,0,0,0,14.32-2.23q25.6-7.35,35.22-27.94c-.36.42-.72.84-1.09,1.25A20,20,0,0,1,188.25,190.62Z"/><path class="cls-3" d="M146.68,195.79a63.59,63.59,0,0,0-1.4-13.7,34.08,34.08,0,0,0-5.09-11.81,42.76,42.76,0,0,0-8.94-9c-5-4-11-8.12-13.77-14.16-5,9.07-6,19.93-6.14,30.17a3.64,3.64,0,0,1,.07.54,47.27,47.27,0,0,1,1,5.53s0,.08,0,.09a1.15,1.15,0,0,1,0,.18.49.49,0,0,0,0,.12v.15h0V184c1.26.3,2.52.6,3.77.92a72.2,72.2,0,0,1,11.7,3.86,27.93,27.93,0,0,1,8.94,5.76,22,22,0,0,1,5.73,11.18c.2-.55,1.14-4.21,1.35-4.74A22.18,22.18,0,0,1,146.68,195.79Z"/><path class="cls-3" d="M153.92,155.79a41.8,41.8,0,0,0-7,6.56,8.82,8.82,0,0,0-2,4.42c-.24,1.67-.19,3.37-.44,5,0,0,0,0,0,.11s0,.05,0,.08c3.56,5.95,4.85,12.8,5.24,19.69a19.67,19.67,0,0,1,6.06-4.72,36.18,36.18,0,0,1,12.17-3.24l.07-.15c4.26-12.6,0-25.26-2.94-37.65C161.88,149.78,157.85,152.71,153.92,155.79Z"/><path class="cls-3" d="M92.33,154.19c3.37,2.45,7.12,4.36,10.17,7.24a28.75,28.75,0,0,1,6,8.36,65.28,65.28,0,0,1,3.08-16.36s0,0,0-.05a4.31,4.31,0,0,0,0-1.34l0-.34v-.13a1.61,1.61,0,0,1,0-.44h0v0a18.38,18.38,0,0,0-2.68-10.67,61.47,61.47,0,0,0-6.12-7.71c-1-1.13-1.91-2.29-2.85-3.46a.07.07,0,0,0,0-.05,6.14,6.14,0,0,0-.94-1.09v0c-1-1.36-2-2.75-3-4.18a25,25,0,0,1-3.93-10c-.31.7-.63,1.4-.94,2.11a130.88,130.88,0,0,0-7.59,27.62c.1.19.19.39.29.58A28.45,28.45,0,0,0,92.33,154.19Z"/><path class="cls-3" d="M125.5,155c4.95,4.54,10.63,8.1,14.94,13.2a10,10,0,0,1,1.74-5.37,37.09,37.09,0,0,1,6.89-6.71c2.73-2.18,5.56-4.25,8.13-6.59.08-.57.14-1.15.22-1.72a.14.14,0,0,1,0-.06c-.64-6.46-4.87-12.66-9.57-16.79-3-2.63-7-5.14-9.09-8.73-2.65,3.64-6.47,6.18-9.66,9.41a18.67,18.67,0,0,0-4.83,8.14,46.89,46.89,0,0,0-1.43,12.49s0,0,0,0C123.69,153.22,124.58,154.12,125.5,155Z"/><path class="cls-3" d="M199,146.27c-.11-1.42-.27-2.83-.44-4.24a26.8,26.8,0,0,1-8.48,9.65c-3.29,2.23-6.78,4.18-9.8,6.8a20.2,20.2,0,0,0-6.32,9.71c-.34,1.82-.63,3.67-1,5.48a.23.23,0,0,1-.07.09c0,.18-.07.37-.1.55a34.15,34.15,0,0,1-1.64,9.08c2.81-.26,5.63-.46,8.38-.81.46-.06,1.74-.22,2.13.12.22.18.15.28,0,.34a1.93,1.93,0,0,1-.31.33.11.11,0,0,1,0,.1,55.23,55.23,0,0,0-6.28,9.21c2.11-.48,4.3-.56,6.49-.93,3.91-.65,6.28-3.37,8.8-6.27a52.33,52.33,0,0,0,6.41-8.61Q200.46,163.71,199,146.27Z"/><path class="cls-3" d="M169.55,110.82a52.46,52.46,0,0,0-4.28-5l0,0a2.65,2.65,0,0,0-.21-.26,1.94,1.94,0,0,0-.31-.26c-1-1.06-2.09-2.11-3.16-3.13,0,.69,0,1.39,0,2.09a10.69,10.69,0,0,1-1,4.2c-1.08,2.27-2.91,4-4.56,5.8a22.55,22.55,0,0,0-6.27,14.69,6.47,6.47,0,0,0,.23,1.06c.51.41,1,.83,1.46,1.25,4.15,3.79,7.92,9.32,9,15.08a26,26,0,0,0,2.68-3.73c.25-.45,3-.56,3.12,0s.21,1,.32,1.45a111.07,111.07,0,0,1,4.76-10.69c1.14-2.22,2.38-4.36,3.68-6.47a5.24,5.24,0,0,0-.06-1.48s0,0,0-.05A26.31,26.31,0,0,0,169.55,110.82Z"/><path class="cls-3" d="M116.41,143.8c.26-.38,3-.42,3.07.09a16.27,16.27,0,0,0,1.62,4.18c.35-5.91,1.64-11.73,5.78-16.14.17-.18.35-.34.52-.51a.24.24,0,0,1,0-.16,7.16,7.16,0,0,0,1.25-2.8c.1-.38.17-.78.24-1.17-.12-5.11-3.58-9.19-6.43-13.13a86,86,0,0,1-6.88-11.62,40.9,40.9,0,0,1-5.32,10.29c-3.4,4.68-6.76,9.61-8.25,15.31,1.67,2.12,3.46,4.14,5.15,6.09a41.59,41.59,0,0,1,5.4,7.31,17.48,17.48,0,0,1,1.83,5.47,35.67,35.67,0,0,1,1.91-3.12h0Z"/><path class="cls-3" d="M140.53,86c-.94,1.58-1.88,3.16-3,4.64a42,42,0,0,1-5.8,5.83,49.59,49.59,0,0,0-5.36,5.85c-1.55,2-3,4.13-3.2,6.69,0,.29,0,.58.08.86s.22.8.34,1.19c.76,1.19,1.53,2.38,2.37,3.53,2.73,3.78,5.91,7.68,6.07,12.55,2.66-2.33,5.2-4.75,6.68-8.17.21-.48,3-.53,3.12,0,.74,3.51,3.3,6,6,8.32a23.15,23.15,0,0,1,5.76-12.7c1-1.15,2.06-2.22,3-3.38a8.8,8.8,0,0,0,.36-2.09s0,0,0,0c-.46-6-2.8-11.37-7.44-15.14-.37-.3-.76-.59-1.15-.89-.07-.08-.16-.13-.23-.2A6.78,6.78,0,0,0,146,91.29v-.05A23.7,23.7,0,0,1,140.53,86Z"/><path class="cls-3" d="M177.68,122.54c.09-.12.17-.26.26-.38,2.25-3.26,5-6.15,7.09-9.53a19,19,0,0,0,1.84-4,91.17,91.17,0,0,0-13.38-19l-.29-.31c-1.75,5.36-3.66,10.67-5.31,16C172.57,110.22,176.56,115.66,177.68,122.54Z"/><path class="cls-3" d="M147.9,91.19c1.38,1,2.77,2,4,3.06a19.84,19.84,0,0,1,6.34,10.58,26.46,26.46,0,0,1,.53-5.38c.16-.57,2.73-.41,3.07-.09,1.22,1.17,2.46,2.34,3.67,3.54,1.73-5.37,3.65-10.7,5.35-16.09a101.58,101.58,0,0,0-17.72-14.59,24.75,24.75,0,0,1-.47,8.19C151.74,84.3,149.29,87.5,147.9,91.19Z"/><path class="cls-3" d="M133.54,90.18c1.58-2.2,2.85-4.61,4.33-6.87h0l.06-.09c.27-.41,2.89-.42,3.07.09a14.27,14.27,0,0,0,4.56,6c1.35-2.87,3.12-5.55,3.93-8.67a25.42,25.42,0,0,0,.46-9.2c0-.44-.12-.89-.19-1.34a20.81,20.81,0,0,0-9.62-3.92c-5,0-10.09,3.29-14.57,6.9a23.71,23.71,0,0,0,2.89,7.74C130.24,83.9,132.59,86.78,133.54,90.18Z"/><path class="cls-3" d="M113.76,98.69c.16-.54,2.9-.49,3.13,0,1.22,2.6,2.5,5.14,3.87,7.63a18,18,0,0,1,2.38-3.82,48.77,48.77,0,0,1,5.27-5.85c1.27-1.17,2.57-2.3,3.8-3.51-.08,0-.13-.09-.13-.15-.09-4.7-3.26-8.29-5.51-12.13a24.08,24.08,0,0,1-2.48-6,88.08,88.08,0,0,0-16.78,14.91,32.82,32.82,0,0,1,5.82,11C113.35,100.08,113.56,99.38,113.76,98.69Z"/><path class="cls-3" d="M99.88,125.2a53.33,53.33,0,0,1,6.89-11.82,41.87,41.87,0,0,0,4.25-7c0-.32,0-.63,0-.95,0,0-.07-.06-.07-.09a30.59,30.59,0,0,0-5.36-13.53,96,96,0,0,0-11,16.68,50.27,50.27,0,0,0,.68,6.49A26.82,26.82,0,0,0,99.88,125.2Z"/><path class="cls-3" d="M169.67,147.17s0,.06,0,.1a12.51,12.51,0,0,0-.46,2.79s0,.05,0,.08a143.94,143.94,0,0,1,3.12,14.49,21.84,21.84,0,0,1,5.68-6.89c3.06-2.49,6.53-4.35,9.72-6.64a26.48,26.48,0,0,0,7.62-8.83,29.68,29.68,0,0,0,2.4-5.83,97.54,97.54,0,0,0-7.95-24.53,19.28,19.28,0,0,1-1.1,1.83c-2.18,3.23-4.81,6.14-7,9.37A104.19,104.19,0,0,0,169.67,147.17Z"/><path class="cls-3" d="M148.94,197.39h0a87.51,87.51,0,0,0-6.29,15.2c2.31-.53,4.76-.73,7-1.4,5.93-1.73,11.39-4.47,15.69-9.1,5.17-5.56,7.81-13,12.84-18.64-3.46.34-6.93.57-10.37,1.1a28.29,28.29,0,0,0-11.43,3.94,22.33,22.33,0,0,0-6.56,7.3v.05c-.15.22-.29.44-.42.67A7.29,7.29,0,0,0,148.94,197.39Z"/></g><text class="cls-4" transform="translate(29.67 181.47) scale(0.94 1)">E</text></g></g></svg>