<svg xmlns="http://www.w3.org/2000/svg" width="55.47" height="70.78" viewBox="0 0 55.47 70.78"><defs><style>.cls-1{fill:#fff;}</style></defs><title>Asset 3</title><g id="Layer_2" data-name="Layer 2"><g id="Linear_Logo" data-name="Linear Logo"><path class="cls-1" d="M25.8,63C24,60,21.75,59,18.66,57.84a64.57,64.57,0,0,0-8.08-2.27c2.4,2.87,4.09,6.31,6.68,9a17.38,17.38,0,0,0,4.27,3.22,12.54,12.54,0,0,0,5.8,1.58s.67,0,.67,0C28.1,67.15,26.86,64.74,25.8,63Z"/><path class="cls-1" d="M26.38,69.71H26a10.78,10.78,0,0,1-3.22-.6,17.79,17.79,0,0,1-7.86-5.48l-.29-.37c-.13-.1-.22-.23-.34-.34a1.33,1.33,0,0,0-.35-.25,24.16,24.16,0,0,1-2.31-1.58,10.1,10.1,0,0,0-3-1.11,13.26,13.26,0,0,1-5.06-2.82,22.49,22.49,0,0,1-1.64-1.6c3.34,7.39,10,12.55,19.94,14.65a27.32,27.32,0,0,0,4,.53h0l1.55,0a1.24,1.24,0,0,0,.85-.49h0s.15,0,.15,0,.18,0,.2-.09l-.1-.09a.31.31,0,0,1,.25,0s-.29-.07-.29-.09l-2.05-.33Z"/><path class="cls-1" d="M5.7,57.18A13.32,13.32,0,0,0,11,59.94a9.62,9.62,0,0,1,2.53,1,53.08,53.08,0,0,0-4.22-5.78l-.1-.06-1-.32c-.3-.09.18-.2.26-.21a2.5,2.5,0,0,1,1,.05c1.09.33,2.2.62,3.31.89v0h0a20.73,20.73,0,0,0-1.84-6.37,13.18,13.18,0,0,0-3.69-4.61c-1.56-1.23-3.34-2.12-4.87-3.4a12.07,12.07,0,0,1-2.1-2.3A34.53,34.53,0,0,0,1.19,52,24.38,24.38,0,0,0,5.7,57.18Z"/><path class="cls-1" d="M50.17,59a6.31,6.31,0,0,1-2.05.74c-1.54.28-3.15.15-4.53,1l-.19.07c-.07.13-.15.25-.23.38a16.22,16.22,0,0,1-6.7,6.46c-2.53,1.22-5.67,2.75-10.06,2.07-.05.21.57.82.52,1,.28.07,1.93,0,2.3,0A27.53,27.53,0,0,0,36,69.71q12.13-3.48,16.69-13.24l-.51.59A9.71,9.71,0,0,1,50.17,59Z"/><path class="cls-1" d="M30.46,61.43a30.19,30.19,0,0,0-.66-6.5,16.35,16.35,0,0,0-2.42-5.6,20.34,20.34,0,0,0-4.24-4.25c-2.37-1.89-5.21-3.85-6.52-6.71-2.35,4.29-2.83,9.44-2.92,14.3a2.34,2.34,0,0,1,0,.26,23.27,23.27,0,0,1,.5,2.62v0a.27.27,0,0,0,0,.09v.12h0v.05l1.79.44a34.9,34.9,0,0,1,5.54,1.83,13,13,0,0,1,4.24,2.73,10.4,10.4,0,0,1,2.72,5.3c.09-.26.54-2,.64-2.25A10.57,10.57,0,0,1,30.46,61.43Z"/><path class="cls-1" d="M33.89,42.46a21.25,21.25,0,0,0-3.32,3.11,4.22,4.22,0,0,0-1,2.1c-.11.79-.09,1.6-.21,2.39,0,0,0,0,0,0v0a20.19,20.19,0,0,1,2.49,9.34,9.17,9.17,0,0,1,2.87-2.24,17.2,17.2,0,0,1,5.77-1.54l0-.07c2-6,0-12-1.39-17.85A31.29,31.29,0,0,1,33.89,42.46Z"/><path class="cls-1" d="M4.69,41.71a45.67,45.67,0,0,1,4.82,3.43,13.61,13.61,0,0,1,2.87,4,30.61,30.61,0,0,1,1.46-7.76v0a1.9,1.9,0,0,0,0-.63c0-.06,0-.11,0-.16s0-.06,0,0v0a.5.5,0,0,1,0-.21h0a8.7,8.7,0,0,0-1.27-5.06,30.07,30.07,0,0,0-2.9-3.66c-.46-.53-.91-1.08-1.35-1.64v0a3.17,3.17,0,0,0-.45-.52v0c-.49-.65-1-1.3-1.42-2a12,12,0,0,1-1.86-4.76c-.15.33-.3.66-.44,1A61.62,61.62,0,0,0,.51,36.68c0,.09.08.19.13.28A13.58,13.58,0,0,0,4.69,41.71Z"/><path class="cls-1" d="M20.42,42.08c2.34,2.15,5,3.84,7.08,6.26a4.8,4.8,0,0,1,.83-2.55,17.53,17.53,0,0,1,3.26-3.18c1.3-1,2.64-2,3.86-3.12,0-.28.06-.55.1-.82,0,0,0,0,0,0a13,13,0,0,0-4.54-8c-1.41-1.25-3.3-2.44-4.31-4.14-1.25,1.73-3.06,2.93-4.57,4.46a9,9,0,0,0-2.3,3.86,21.91,21.91,0,0,0-.67,5.93h0C19.56,41.25,20,41.67,20.42,42.08Z"/><path class="cls-1" d="M55.29,38c-.06-.67-.13-1.34-.22-2a12.68,12.68,0,0,1-4,4.58,46.36,46.36,0,0,0-4.65,3.22,9.62,9.62,0,0,0-3,4.6c-.16.87-.3,1.74-.49,2.6,0,0,0,0,0,.05a2.17,2.17,0,0,0,0,.25,16.26,16.26,0,0,1-.79,4.31c1.34-.12,2.67-.22,4-.38.22,0,.82-.11,1,0s.07.14,0,.16a.73.73,0,0,1-.14.16.06.06,0,0,1,0,.05,26.74,26.74,0,0,0-3,4.37c1-.23,2.05-.27,3.08-.44,1.86-.31,3-1.6,4.17-3a23.91,23.91,0,0,0,3-4.08A41,41,0,0,0,55.29,38Z"/><path class="cls-1" d="M41.3,21.15a24.28,24.28,0,0,0-2-2.38v0l-.1-.12A.93.93,0,0,0,39,18.5c-.49-.5-1-1-1.5-1.48,0,.33,0,.66,0,1A5.19,5.19,0,0,1,37,20a11.77,11.77,0,0,1-2.16,2.75,10.65,10.65,0,0,0-3,7,2.78,2.78,0,0,0,.11.5c.24.2.47.39.69.59A13.6,13.6,0,0,1,37,38a12,12,0,0,0,1.26-1.77c.13-.21,1.43-.26,1.48,0s.11.46.16.69a52.1,52.1,0,0,1,2.25-5.07c.54-1,1.13-2.07,1.75-3.07a2.37,2.37,0,0,0,0-.7v0A12.38,12.38,0,0,0,41.3,21.15Z"/><path class="cls-1" d="M16.11,36.78c.12-.18,1.4-.2,1.45,0a8.15,8.15,0,0,0,.77,2c.17-2.8.78-5.55,2.74-7.65l.25-.24a.13.13,0,0,1,0-.08,3.37,3.37,0,0,0,.6-1.32c0-.18.08-.37.11-.56C22,26.53,20.35,24.6,19,22.73a40.71,40.71,0,0,1-3.26-5.51,19.36,19.36,0,0,1-2.53,4.88A22.41,22.41,0,0,0,9.3,29.36c.8,1,1.64,2,2.44,2.89a19.78,19.78,0,0,1,2.57,3.46,8.15,8.15,0,0,1,.86,2.59c.28-.5.58-1,.91-1.48h0Z"/><path class="cls-1" d="M27.55,9.4c-.45.75-.9,1.5-1.41,2.2a20.49,20.49,0,0,1-2.75,2.76,23.92,23.92,0,0,0-2.55,2.77,5.94,5.94,0,0,0-1.51,3.18l0,.41c.05.18.11.37.17.56.36.57.72,1.13,1.12,1.67,1.29,1.79,2.8,3.64,2.88,5.95A11.19,11.19,0,0,0,26.7,25c.09-.23,1.42-.25,1.48,0A7.35,7.35,0,0,0,31,29a11.09,11.09,0,0,1,2.73-6c.47-.54,1-1.05,1.45-1.6a4.77,4.77,0,0,0,.17-1h0a9.93,9.93,0,0,0-3.53-7.18c-.17-.15-.36-.29-.54-.43l-.11-.09a3.25,3.25,0,0,0-1.07-.77v0A11.19,11.19,0,0,1,27.55,9.4Z"/><path class="cls-1" d="M45.16,26.7l.12-.18C46.35,25,47.66,23.61,48.64,22a9.09,9.09,0,0,0,.88-1.9,43.63,43.63,0,0,0-6.35-9L43,10.93c-.83,2.54-1.73,5.05-2.51,7.6C42.73,20.86,44.62,23.44,45.16,26.7Z"/><path class="cls-1" d="M31,11.84c.65.48,1.31.95,1.9,1.45a9.54,9.54,0,0,1,3,5,12.32,12.32,0,0,1,.25-2.55c.07-.27,1.29-.19,1.45,0,.58.56,1.17,1.11,1.74,1.68.82-2.55,1.73-5.07,2.54-7.63a48.78,48.78,0,0,0-8.4-6.92,12.08,12.08,0,0,1-.22,3.89C32.86,8.57,31.7,10.09,31,11.84Z"/><path class="cls-1" d="M24.23,11.36c.75-1,1.35-2.19,2.05-3.26h0l0,0c.13-.19,1.37-.2,1.46,0A6.82,6.82,0,0,0,29.93,11a23.74,23.74,0,0,0,1.86-4.11A11.85,11.85,0,0,0,32,2.5l-.09-.64A10,10,0,0,0,27.36,0C25,0,22.57,1.56,20.45,3.27a11.29,11.29,0,0,0,1.37,3.67A20,20,0,0,1,24.23,11.36Z"/><path class="cls-1" d="M14.85,15.39c.08-.25,1.37-.23,1.48,0,.58,1.24,1.19,2.44,1.84,3.62A8.71,8.71,0,0,1,19.3,17.2a22,22,0,0,1,2.5-2.77c.6-.56,1.22-1.09,1.8-1.67,0,0-.06,0-.06-.07,0-2.23-1.55-3.93-2.61-5.75a11.12,11.12,0,0,1-1.18-2.82,42,42,0,0,0-8,7.07,15.46,15.46,0,0,1,2.76,5.19Q14.72,15.89,14.85,15.39Z"/><path class="cls-1" d="M8.27,28a25.33,25.33,0,0,1,3.27-5.6,20.38,20.38,0,0,0,2-3.32c0-.15,0-.3,0-.45l0,0A14.54,14.54,0,0,0,11,12.13,45.71,45.71,0,0,0,5.79,20a26.57,26.57,0,0,0,.32,3.08A12.81,12.81,0,0,0,8.27,28Z"/><path class="cls-1" d="M41.36,38.38s0,0,0,0a5.86,5.86,0,0,0-.21,1.32s0,0,0,0a69,69,0,0,1,1.48,6.87,10.3,10.3,0,0,1,2.69-3.27c1.45-1.18,3.09-2.06,4.61-3.15a12.47,12.47,0,0,0,3.61-4.19,14.2,14.2,0,0,0,1.14-2.76,46,46,0,0,0-3.77-11.63,9.52,9.52,0,0,1-.52.87c-1,1.53-2.28,2.91-3.33,4.44A49.63,49.63,0,0,0,41.36,38.38Z"/><path class="cls-1" d="M31.53,62.19h0a41.21,41.21,0,0,0-3,7.2c1.09-.25,2.26-.34,3.33-.66a15.93,15.93,0,0,0,7.44-4.31c2.45-2.64,3.71-6.15,6.09-8.84-1.64.16-3.29.27-4.92.52A13.19,13.19,0,0,0,35.06,58a10.57,10.57,0,0,0-3.12,3.46v0l-.2.32A3.29,3.29,0,0,0,31.53,62.19Z"/></g></g></svg>