<svg xmlns="http://www.w3.org/2000/svg" width="74.83" height="71.72" viewBox="0 0 74.83 71.72"><defs><style>.cls-1{fill:none;stroke:#194a8a;stroke-linecap:round;stroke-miterlimit:10;stroke-width:2px;}</style></defs><title>Asset 17</title><g id="Layer_2" data-name="Layer 2"><g id="tractor"><polyline class="cls-1" points="7.78 30.52 7.78 3.81 9.78 1 31.78 1 38.78 22.09 68.78 22.09 71.78 24.9 71.78 48.8"/><line class="cls-1" x1="38.58" y1="21.98" x2="30.56" y2="36.13"/><circle class="cls-1" cx="65.08" cy="61.25" r="8.75"/><circle class="cls-1" cx="17.32" cy="57.48" r="13.24"/><circle class="cls-1" cx="17.43" cy="57.73" r="5.24"/><circle class="cls-1" cx="65.17" cy="61.19" r="1"/><line class="cls-1" x1="20.46" y1="29.58" x2="20.46" y2="1"/><path class="cls-1" d="M62,53.08s-7.12-8.84-22.18-8.27"/><line class="cls-1" x1="61.96" y1="46.38" x2="71.78" y2="46.38"/><line class="cls-1" x1="61.96" y1="41.25" x2="71.78" y2="41.25"/><line class="cls-1" x1="61.96" y1="36.13" x2="71.78" y2="36.13"/><path class="cls-1" d="M62,22V10.53s-.37-2.21-5.62-1.77"/><line class="cls-1" x1="56.34" y1="61.25" x2="35.96" y2="61.25"/><path class="cls-1" d="M37.26,57.48c2-8.53-4.44-17.38-14.45-19.77S3,40.3,1,48.83"/></g></g></svg>